<svg width="251" height="252" viewBox="0 0 251 252" fill="none" xmlns="http://www.w3.org/2000/svg">
<path d="M247.709 126.809C247.709 195.198 192.263 250.66 123.851 250.66C55.4539 250.66 0 195.198 0 126.809C0 58.3969 55.4539 2.95068 123.851 2.95068C192.263 2.95068 247.709 58.3969 247.709 126.809" fill="white"/>
<path d="M18.2222 128.004C18.2222 186.955 66.0249 234.742 124.96 234.742C183.911 234.742 231.706 186.955 231.706 128.004C231.706 69.0614 183.911 21.2665 124.96 21.2665C66.0249 21.2665 18.2222 69.0614 18.2222 128.004" fill="url(#paint0_radial)"/>
<path d="M79.9038 44.019C71.6724 44.3594 63.789 45.4579 55.929 46.6261C33.6638 65.5337 19.2743 93.3844 18.3073 124.647C24.5969 131.269 32.9057 146.262 42.491 154.927C43.7597 154.362 45.1368 153.882 46.6067 153.434C41.903 147.972 35.3271 140.731 34.3369 137.396C29.4939 121.065 35.1027 105.778 47.2179 104.571C58.0797 103.48 67.4018 87.3191 75.0609 76.7204C90.812 54.9272 115.019 58.5632 113.804 47.655C112.412 41.2803 108.636 39.3385 103.832 39.3385C96.6064 39.3325 87.0754 43.7404 79.9038 44.019" fill="url(#paint1_radial)"/>
<path d="M51.1788 152.134C49.6006 152.583 48.0688 153 46.6066 153.434C45.2914 153.79 44.2702 154.308 42.4909 154.927C38.5763 156.675 35.7371 159.352 35.0718 165.069C33.8804 175.443 43.7442 183.582 52.053 185.965C62.5976 188.982 63.4795 185.454 69.011 192.928C72.8714 198.15 73.6218 207.843 75.5946 214.218C76.7009 217.784 78.194 221.328 79.9811 224.801C87.5162 228.306 95.5079 230.975 103.871 232.646C105.944 220.353 105.008 203.758 107.754 196.587C113.394 181.903 116.574 175.428 108.969 160.273C92.1967 155.538 87.1139 154.037 70.2178 150.571C66.7752 149.867 64.6245 149.511 62.6904 149.511C59.6887 149.511 57.2131 150.37 51.1788 152.134" fill="url(#paint2_radial)"/>
<path d="M154.977 67.0345C150.033 74.0978 132.689 76.0319 127.126 83.9771C122.794 90.1816 127.274 102.374 123.498 109.406C121.757 112.648 122.562 122.055 124.682 125.127C131.358 134.843 142.46 129.443 150.807 132.94C160.996 137.195 162.164 149.009 170.612 157.658C179.076 166.315 159.812 179.652 175.54 211.123C177.219 214.504 179.176 216.98 181.273 218.674C191.91 212.06 201.271 203.627 208.969 193.81C211.352 177.911 205.983 172.829 212.698 158.277C216.837 149.303 223.931 133.768 231.582 123.231C230.282 93.7558 217.045 67.3904 196.575 48.8542C194.657 49.3877 192.212 49.4808 188.878 48.879C186.015 48.3449 183.439 48.1208 181.103 48.1208C165.313 48.1208 160.609 58.9904 154.977 67.0361" fill="url(#paint3_radial)"/>
<path d="M112.769 241.279C109.234 239.252 104.801 236.111 100.662 233.372C98.9443 234.889 97.5595 237.117 96.1901 238.904C100.933 240.528 107.323 240.668 112.769 241.279ZM94.1014 228.599C86.5275 222.951 67.7902 205.181 60.0229 194.466C57.1682 196.145 53.9886 200.717 49.8574 201.506C48.2328 201.808 44.5812 202.257 43.4982 201.808C42.4227 201.36 43.7457 199.077 44.9139 197.553C46.9331 194.915 49.8806 191.488 54.1975 188.146C44.9603 174.607 40.5738 164.72 34.292 148.397C30.6636 150.664 28.0255 152.683 24.8614 155.205C23.7938 156.04 20.8617 156.574 19.4382 155.298C16.8543 152.977 16.8156 148.9 20.4439 146.316C21.937 145.248 29.3175 140.15 31.0427 138.711C26.5015 125.621 22.7029 108.416 21.6972 99.4955C18.6723 102.126 14.4173 105.12 13.2182 105.932C11.5008 106.42 10.348 105.87 9.85291 105.785C8.12771 124.298 10.116 144.683 15.6242 163.088C25.0857 194.737 51.6213 224.916 87.4327 236.142C88.2682 234.896 92.3839 230.131 94.1014 228.599V228.599ZM20.5909 89.879C20.1422 83.0324 19.5929 73.656 19.5929 73.656C14.5643 84.5951 11.5549 91.1864 10.1546 103.959C13.6747 97.7236 20.5909 89.879 20.5909 89.879V89.879ZM74.3274 11.572C95.1303 2.96149 115.376 -1.7654 138.755 1.4297C141.355 1.78557 141.138 3.99043 138.377 4.01363L135.081 4.09902C116.251 4.393 88.5547 10.3732 74.2271 18.4886C73.9256 28.0429 75.7356 43.2293 77.6542 55.1974C90.6745 49.7201 110.804 44.0958 126.091 42.417C117.411 33.1953 105.606 24.4687 104.198 23.4553C102.782 22.4418 102.078 20.7166 102.078 18.4886C102.279 14.3264 105.853 13.8081 107.772 14.3032C114.131 13.0577 120.459 11.6806 131.236 11.9978C176.78 10.0096 218.393 35.7715 234.276 65.1463C274.512 128.777 234.288 216.561 181.607 239.941C159.079 249.944 139.754 254.253 104.136 249.286C68.448 244.304 39.2744 226.859 16.6147 190.188C-11.2979 145.001 4.41453 92.3549 8.33684 81.3152C25.1401 41.6898 52.6814 20.6934 74.3276 11.5723L74.3274 11.572ZM27.2444 59.7232C26.6335 64.4887 27.2692 73.2849 28.4667 83.7908C38.1525 75.1261 56.8668 63.8234 72.5096 56.9226C70.6993 45.0009 68.773 25.9851 68.9741 20.9255C54.5072 28.863 38.6245 44.823 26.9891 61.1853L27.2444 59.7232ZM29.3719 93.3761C30.7412 102.822 35.2747 123.192 39.3595 133.528C49.0531 126.232 70.9933 112.694 83.41 107.216C79.07 91.3956 76.1457 81.408 73.7164 65.4403C56.1627 73.2462 37.6033 85.3768 29.3719 93.3761V93.3761ZM43.1425 142.664C48.8984 159.081 54.4608 171.606 61.7252 181.941C70.2196 174.553 87.6418 162.887 100.964 156.504C96.5772 147.074 90.2412 129.443 85.8315 116.237C68.6724 124.662 55.861 132.87 43.1425 142.664ZM67.1561 189.113C76.1843 200.694 90.3263 215.393 100.167 223.516C109.481 216.028 120.034 209.034 128.815 204.771C121.241 193.028 110.046 175.969 105.358 165.479C88.5547 172.929 79.0158 179.172 67.1561 189.113V189.113ZM105.961 228.63C109.543 232.251 123.739 241.65 123.739 241.65C133.186 242.06 145.115 240.946 153.633 239.461C148.937 234.1 137.208 217.498 133.65 211.912C124.567 215.718 113.071 222.727 105.961 228.63V228.63ZM163.582 237.04C168.37 235.5 180.563 229.969 183.1 228.298C183.704 218.465 183.603 207.301 183.201 200.617C170.382 200.617 152.325 204.369 141.982 208.701C147.985 218.364 156.263 229.009 163.582 237.04H163.582ZM189.862 224.654C199.486 218.65 208.53 211.75 215.09 203.448C209.443 202.033 196.825 200.315 190.566 200.718C190.566 200.718 190.365 215.718 189.862 224.654V224.654ZM218.115 199.596C219.933 197.778 222.656 193.925 223.716 191.681C224.776 182.56 224.807 163.862 224.42 158.408C213.419 153.944 196.422 150.416 184.006 149.503C188.044 164.318 190.063 186.111 190.365 193.213C196.322 193.817 211.354 196.865 218.115 199.596ZM234.261 157.309C233.758 159.034 230.725 160.767 229.31 160.334C229.518 163.398 228.806 178.623 228.002 184.494C230.114 180.154 234.152 169.378 235.367 164.821L237.077 158.129C238.779 152.435 244.295 132.777 239.297 106.915C233.758 78.182 223.36 67.9236 219.724 63.3592C210.487 58.3383 196.515 53.7817 196.515 53.7817C209.18 70.9253 213.566 78.9943 221.14 99.4104C225.534 101.693 233.503 106.11 234.493 107.325C235.297 108.276 235.305 109.994 232.806 109.955C230.725 109.943 226.687 107.951 223.561 107.116C226.888 118.241 229.464 139.013 229.271 152.93C229.271 152.93 234.764 155.592 234.261 157.309V157.309ZM213.071 53.7817C195.51 32.2747 155.76 13.9783 111.509 16.7324C121.396 23.2541 129.627 33.0947 136.837 41.2024C147.885 40.1889 171.094 42.0147 179.82 44.4285C178.335 42.6723 176.509 40.9316 176.037 39.895C174.799 37.2337 177.778 36.6612 180.168 38.1852C183.201 40.1193 186.69 42.4325 189.46 45.2562C194.589 46.409 207.215 50.7336 213.071 53.7817V53.7817ZM224.32 150.756C223.561 136.885 221.442 118.357 216.297 105.46C202.673 99.9907 184.06 96.5712 167.713 96.4165C172.757 108.176 178.621 127.834 181.484 140.483C193.289 141.898 211.756 145.24 224.32 150.756ZM186.025 51.5459C173.716 49.3178 155.76 47.8943 142.438 48.6989C151.521 61.2781 158.182 72.2328 164.433 87.8447C181.283 88.2624 204.182 93.291 213.574 96.9812C207.973 82.0424 197.328 63.073 186.025 51.5459V51.5459ZM108.832 152.853C128.915 143.623 150.964 139.469 173.159 140.073C167.102 119.084 163.628 109.344 158.476 96.5712C133.812 97.6388 112.77 103.72 93.5991 112.802C93.5991 112.802 100.662 135.508 108.832 152.853ZM175.434 148.9C150.306 148.598 128.374 154.609 113.381 161.982C119.732 175.667 132.296 193.786 136.992 201.251C145.162 198.211 153.942 195.929 160.75 194.861C167.566 193.801 176.641 192.803 182.799 192.912C181.685 176.983 179.82 166.237 175.434 148.9ZM90.7521 104.168C108.917 96.4552 128.606 90.2816 155.149 88.0535C148.388 71.8305 140.922 60.373 132.141 49.8748C112.576 51.4453 94.7131 56.7215 79.2714 63.1039C81.5382 75.1262 85.8318 89.6704 90.7521 104.168" fill="black"/>
<defs>
<radialGradient id="paint0_radial" cx="0" cy="0" r="1" gradientUnits="userSpaceOnUse" gradientTransform="translate(90.7995 108.204) scale(75.6959)">
<stop stop-color="#B9E0F7"/>
<stop offset="1" stop-color="#007AC2"/>
</radialGradient>
<radialGradient id="paint1_radial" cx="0" cy="0" r="1" gradientUnits="userSpaceOnUse" gradientTransform="translate(86.5876 109.258) scale(92.8661)">
<stop stop-color="#B2D234"/>
<stop offset="0.960678" stop-color="#009E46"/>
<stop offset="1" stop-color="#009E46"/>
</radialGradient>
<radialGradient id="paint2_radial" cx="0" cy="0" r="1" gradientUnits="userSpaceOnUse" gradientTransform="translate(110.061 103.195) scale(118.032)">
<stop stop-color="#B2D234"/>
<stop offset="0.960678" stop-color="#009E46"/>
<stop offset="1" stop-color="#009E46"/>
</radialGradient>
<radialGradient id="paint3_radial" cx="0" cy="0" r="1" gradientUnits="userSpaceOnUse" gradientTransform="translate(118.715 52.8301) scale(156.016)">
<stop stop-color="#B2D234"/>
<stop offset="0.960678" stop-color="#009E46"/>
<stop offset="1" stop-color="#009E46"/>
</radialGradient>
</defs>
</svg>
