<svg width="78" height="62" viewBox="0 0 78 62" fill="none" xmlns="http://www.w3.org/2000/svg">
<path d="M35.1 36.906C32.8 34.206 32.9 32.706 34.3 31.306C36 29.606 37.8 30.306 39.8 32.206L35.1 36.906ZM58.7 6.906C60.4 5.206 62.2 5.906 64.2 7.806L59.5 12.506C57.1 9.806 57.2 8.406 58.7 6.906V6.906ZM72.9 11.706C70.8 14.906 67 20.106 63.1 16.206L73 6.306C72.1 5.406 71.5 4.606 70.9 4.106C65.6 -1.194 59.6 -1.294 54.9 3.406C51.8 6.506 50.9 10.106 51.8 13.506L48.7 10.006C47.9 10.406 44.1 13.806 46.9 18.806L43.4 15.906L38.7 20.606L45.1 27.006C40.2 23.106 34.9 23.506 30.7 27.706C26.2 32.206 26.5 37.706 29.9 42.206L29.2 41.506C24.7 37.006 19.8 38.606 17.4 41.006C15.5 42.906 14.4 45.406 14.9 47.206L5.2 37.506L0 42.706L19.2 61.906H29.5L22.6 55.006C19 51.306 18.9 49.406 20.7 47.606C22.4 45.906 24.4 47.006 27.9 50.406L34.7 57.206L39.8 52.106L33.3 45.606C38 49.106 43.6 49.306 48.6 44.306L48.7 44.206C51.8 41.406 52.7 38.606 52.7 38.606L48.8 36.006C46.7 39.206 43 44.406 39.1 40.506L49 30.606L55.2 36.806L60.6 31.406L52.9 23.706C49.3 20.106 51.4 16.706 52.9 15.406C53.6 16.906 54.6 18.306 55.9 19.606C60.9 24.606 67.3 25.606 73 20.006L73.1 19.906C76.2 17.106 77.1 14.306 77.1 14.306L72.9 11.706V11.706Z" fill="#114191"/>
</svg>
