<svg width="46" height="44" viewBox="0 0 46 44" fill="none" xmlns="http://www.w3.org/2000/svg">
<path d="M45.7573 21.9547C45.7573 19.2547 45.2253 16.6787 44.2947 14.288C44.0467 22.152 35.7173 28.2427 30.8267 32.2733H43.0693C44.7813 29.1947 45.7573 25.6853 45.7573 21.9547ZM36.9067 4.63734C33.032 1.74 28.172 2.6172e-06 22.8773 2.6172e-06C10.2427 2.6172e-06 0 9.82934 0 21.9547C0 34.08 10.2427 43.9093 22.8773 43.9093C28.6653 43.9093 33.9347 41.8333 37.9613 38.4333H21.3973L21.348 33.764C31.328 25.4387 37.4467 19.808 37.4467 14.3693C37.4467 12.348 36.644 9.79733 33.0347 9.79733C30.176 9.79733 27.4173 11.3867 27.9173 18.0267H22.1013C20.6453 10.328 25.0093 4.21334 33.3347 4.21334C34.6227 4.21334 35.8187 4.36267 36.9067 4.63734" fill="#AFCA0B"/>
</svg>
