<svg width="36" height="36" viewBox="0 0 36 36" fill="none" xmlns="http://www.w3.org/2000/svg">
<path d="M30.9992 25.7318C30.9899 24.8986 30.7947 24.0759 30.4906 23.3032C30.2559 22.7049 29.9834 22.1224 29.7173 21.5377C27.5997 16.9274 25.3776 12.3657 23.0525 7.85627C22.7255 7.22617 22.4054 6.59227 22.06 5.97192C21.7206 5.36679 21.3256 4.78425 20.8141 4.3106C19.998 3.53332 18.9029 3.06991 17.7791 3H17.2617C16.1047 3.05707 14.9754 3.54212 14.1453 4.35055C13.6526 4.81682 13.2713 5.38534 12.941 5.97359C12.6001 6.58371 12.2845 7.20763 11.9637 7.82774C10.4036 10.8532 8.88941 13.9021 7.42167 16.9734C6.54678 18.8114 5.67926 20.6525 4.84482 22.5085C4.49876 23.2818 4.18579 24.0814 4.06798 24.9255C3.84973 26.3507 4.1627 27.8465 4.92479 29.0704C5.58168 30.1334 6.56772 30.9901 7.71704 31.4849C8.6155 31.8724 9.59204 32.045 10.569 31.9893C11.874 31.9201 13.1323 31.4517 14.2364 30.7681C15.4681 30.0129 16.5215 29.0085 17.5023 27.9571C18.4143 28.9391 19.3904 29.8762 20.5171 30.6107C21.6052 31.3259 22.8459 31.8437 24.1509 31.9669C25.5682 32.1148 27.0367 31.7639 28.2262 30.9756C29.2783 30.2792 30.0931 29.279 30.562 28.1083C30.8639 27.3529 31.0125 26.5451 30.9992 25.7318ZM17.5082 25.1821C17.1524 24.7636 16.839 24.3109 16.5241 23.8615C15.9943 23.0851 15.5126 22.2736 15.1251 21.4162C14.8076 20.7048 14.5527 19.958 14.4532 19.1823C14.3806 18.567 14.398 17.925 14.6241 17.3408C14.8264 16.793 15.2153 16.3184 15.708 16.0047C16.8818 15.2479 18.555 15.3297 19.6186 16.2477C20.157 16.7059 20.4785 17.3834 20.5594 18.0796C20.6653 19.005 20.4547 19.9344 20.1313 20.7975C19.5205 22.3992 18.5538 23.8348 17.5082 25.1821ZM29.0259 27.1449C28.7122 28.2265 27.9582 29.1714 26.9717 29.7166C26.0973 30.2053 25.0536 30.3726 24.0678 30.2081C22.8124 30.0129 21.6859 29.3474 20.7098 28.5618C19.9925 27.9859 19.3466 27.3277 18.7278 26.6494C19.7048 25.4148 20.6251 24.1233 21.3282 22.7114C21.9417 21.4749 22.408 20.1353 22.4523 18.7451C22.4773 17.8629 22.3111 16.9646 21.8987 16.1793C21.3586 15.13 20.3912 14.3239 19.2821 13.934C18.246 13.5642 17.0943 13.5312 16.0374 13.8322C15.0406 14.114 14.1303 14.7125 13.5065 15.542C12.9574 16.2653 12.6444 17.1546 12.5718 18.0565C12.4602 19.3554 12.786 20.6513 13.2789 21.8454C14.0117 23.5902 15.0873 25.1695 16.2751 26.6344C15.7395 27.2524 15.1583 27.8294 14.5363 28.3606C13.5719 29.1759 12.4685 29.8857 11.2185 30.1558C10.208 30.3824 9.11768 30.2697 8.1909 29.8013C7.10537 29.2608 6.27188 28.2429 5.95748 27.0728C5.7171 26.2133 5.77041 25.2853 6.05625 24.4433C6.29402 23.7466 6.61651 23.0828 6.9183 22.4125C9.01319 17.8518 11.2104 13.3388 13.5084 8.87679C13.8511 8.21269 14.1886 7.5455 14.5513 6.89234C14.8474 6.36615 15.1917 5.84947 15.6785 5.47997C16.2047 5.07038 16.8557 4.85359 17.5227 4.8658C18.2082 4.85772 18.8896 5.11 19.4139 5.55011C19.9318 5.97977 20.2817 6.56754 20.5958 7.15342C21.306 8.48613 21.9882 9.8343 22.6705 11.181C24.6179 15.0317 26.4892 18.9204 28.2831 22.8448C28.5542 23.4544 28.8443 24.0593 29.0268 24.7027C29.2499 25.4962 29.2572 26.3531 29.0259 27.1449Z" fill="#FF7977"/>
</svg>
