<?xml version="1.0" encoding="UTF-8"?>
<!DOCTYPE svg PUBLIC "-//W3C//DTD SVG 1.1//EN" "http://www.w3.org/Graphics/SVG/1.1/DTD/svg11.dtd">
<!-- Creator: CorelDRAW X8 -->
<svg xmlns="http://www.w3.org/2000/svg" xml:space="preserve" width="62.4745mm" height="62.4744mm" version="1.1" style="shape-rendering:geometricPrecision; text-rendering:geometricPrecision; image-rendering:optimizeQuality; fill-rule:evenodd; clip-rule:evenodd"
viewBox="0 0 255 255"
 xmlns:xlink="http://www.w3.org/1999/xlink">
 <defs>
  <style type="text/css">
   <![CDATA[
    .fil1 {fill:#3757A1}
    .fil2 {fill:#1D7AC2}
    .fil3 {fill:#46ACD4}
    .fil0 {fill:#89D9F2}
   ]]>
  </style>
 </defs>
 <g id="Слой_x0020_1">
  <metadata id="CorelCorpID_0Corel-Layer"/>
  <path class="fil0" d="M128 255c-2,0 -4,0 -5,0 -2,0 -4,0 -5,0 -11,-1 -22,-3 -33,-7 -67,-24 -101,-97 -78,-163 18,-48 61,-80 108,-84 2,-1 4,-1 6,-1 2,0 4,0 7,0l0 255z"/>
  <path class="fil1" d="M128 0c0,0 0,0 0,0 2,0 5,0 7,0 12,1 24,3 36,7 66,24 100,97 77,164 -19,51 -68,84 -120,84 0,0 0,0 0,0 0,0 0,0 0,0l0 -255z"/>
  <path class="fil2" d="M150 7c34,24 51,97 39,164 -9,51 -34,83 -60,84 0,0 -1,0 -1,0 0,0 0,0 0,0 -8,0 -15,-2 -23,-7 -34,-24 -47,-97 -35,-163 10,-52 31,-85 58,-85 0,0 0,0 0,0 0,0 1,0 1,0 7,0 14,3 21,7z"/>
  <path class="fil3" d="M128 255c-1,0 -1,0 -1,0 0,0 -1,0 -1,0 -7,0 -14,-3 -21,-7 -34,-24 -51,-97 -39,-163 9,-50 32,-82 58,-85 1,0 1,0 2,0 0,0 1,0 2,0l0 255z"/>
 </g>
</svg>
