<svg width="16" height="16" viewBox="0 0 16 16" fill="none" xmlns="http://www.w3.org/2000/svg">
<circle cx="8" cy="8" r="7.5" fill="white" stroke="black"/>
<path d="M8.49414 12H7.50049V6.18848H8.49414V12ZM7.41992 4.64697C7.41992 4.48584 7.46826 4.34977 7.56494 4.23877C7.6652 4.12777 7.81201 4.07227 8.00537 4.07227C8.19873 4.07227 8.34554 4.12777 8.4458 4.23877C8.54606 4.34977 8.59619 4.48584 8.59619 4.64697C8.59619 4.80811 8.54606 4.94238 8.4458 5.0498C8.34554 5.15723 8.19873 5.21094 8.00537 5.21094C7.81201 5.21094 7.6652 5.15723 7.56494 5.0498C7.46826 4.94238 7.41992 4.80811 7.41992 4.64697Z" fill="black"/>
</svg>
