<svg width="17" height="17" viewBox="0 0 17 17" fill="none" xmlns="http://www.w3.org/2000/svg">
<circle cx="8.16345" cy="8.5" r="7.5" stroke="black"/>
<path d="M8.65759 12.5H7.66394V6.68848H8.65759V12.5ZM7.58337 5.14697C7.58337 4.98584 7.63171 4.84977 7.72839 4.73877C7.82865 4.62777 7.97546 4.57227 8.16882 4.57227C8.36218 4.57227 8.50899 4.62777 8.60925 4.73877C8.70951 4.84977 8.75964 4.98584 8.75964 5.14697C8.75964 5.30811 8.70951 5.44238 8.60925 5.5498C8.50899 5.65723 8.36218 5.71094 8.16882 5.71094C7.97546 5.71094 7.82865 5.65723 7.72839 5.5498C7.63171 5.44238 7.58337 5.30811 7.58337 5.14697Z" fill="black"/>
</svg>
