<svg width="178" height="178" viewBox="0 0 178 178" fill="none" xmlns="http://www.w3.org/2000/svg">
<path d="M88.9 0C39.8 0 0 39.8 0 88.9C0 138 39.8 177.8 88.9 177.8C138 177.8 177.8 138 177.8 88.9C177.8 39.8 138 0 88.9 0ZM131.1 110.7C100.7 141.1 46.4 131.4 46.4 131.4C46.4 131.4 36.6 77.2 67.1 46.7C84 29.8 112 30.5 129.7 48.1C147.4 65.7 148 93.8 131.1 110.7Z" fill="#4264FB"/>
<path d="M99.1 52.1L90.4 70L72.5 78.7L90.4 87.4L99.1 105.3L107.8 87.4L125.7 78.7L107.8 70L99.1 52.1Z" fill="#4264FB"/>
</svg>
