<svg width="53" height="55" viewBox="0 0 53 55" fill="none" xmlns="http://www.w3.org/2000/svg">
<path fill-rule="evenodd" clip-rule="evenodd" d="M25.2539 40.6455C26.2026 41.1536 49.2083 53.9174 49.9345 54.3279C51.3856 55.1482 52.9213 53.561 52.1317 52.0771C51.7339 51.3297 39.2731 27.2544 38.8523 26.517C38.4315 25.7796 37.3963 25.4077 36.6186 25.9025C35.8567 26.3872 34.9786 26.9331 34.4878 27.1946C33.4959 27.723 33.3743 28.5171 33.8192 29.4C34.7972 31.3404 37.8751 37.2276 38.2274 37.8445C38.9652 39.1364 37.3205 40.6109 36.2052 39.9669C35.7329 39.6941 28.4292 35.6665 27.9132 35.351C27.3971 35.0355 26.4828 35.0387 25.8556 36.1027C25.3994 36.8764 24.8397 37.8365 24.5816 38.3178C24.0739 39.2642 24.3051 40.1374 25.2539 40.6455Z" fill="#36AF6D"/>
<path fill-rule="evenodd" clip-rule="evenodd" d="M0.977689 27.1847C-0.24703 26.4884 -0.0230285 24.6791 1.52241 24.2177C2.83179 23.8267 13.4648 20.0897 16.6825 18.9572C17.2626 18.753 17.7155 18.2835 17.9104 17.684C19.0064 14.3128 22.667 3.05279 23.0774 1.79047C23.5607 0.303698 25.3105 0.298244 26.0237 1.73758C26.277 2.24882 35.9049 20.5449 36.2399 21.321C36.5749 22.0971 36.3591 22.9568 35.5999 23.4527C34.8407 23.9486 33.6026 24.6902 33.1712 24.9712C32.3903 25.4799 31.6418 25.1258 31.2852 24.3378C30.9287 23.5498 28.1821 18.4657 27.0621 16.3073C26.5023 15.2284 24.8157 14.8144 24.2488 16.5581C23.8388 17.8193 22.8832 20.7589 22.3857 22.2892C22.1953 22.8747 21.7129 23.3786 21.1493 23.5743C19.7507 24.0601 17.093 24.9831 15.5414 25.5219C14.4341 25.9065 13.8959 27.6847 15.3909 28.4335C15.7032 28.5899 22.4341 32.3767 23.1286 32.723C23.8231 33.0694 24.2092 34.0692 23.8026 34.7775C23.2479 35.7437 22.5377 36.9698 22.2801 37.3679C21.8337 38.0579 20.9567 38.2876 20.2201 37.8804C19.4835 37.4732 1.4153 27.4335 0.977689 27.1847Z" fill="#36AF6D"/>
</svg>
