<svg width="46" height="47" viewBox="0 0 46 47" fill="none" xmlns="http://www.w3.org/2000/svg">
<path d="M24.727 38.4431C33.7143 38.4431 41 31.305 41 22.4997C41 13.6944 33.7143 6.55627 24.727 6.55627C15.7397 6.55627 8.4541 13.6944 8.4541 22.4997C8.4541 31.305 15.7397 38.4431 24.727 38.4431Z" fill="black"/>
<path d="M24.5774 37.9365C33.3262 37.9365 40.4186 30.8442 40.4186 22.0953C40.4186 13.3465 33.3262 6.25415 24.5774 6.25415C15.8285 6.25415 8.73621 13.3465 8.73621 22.0953C8.73621 30.8442 15.8285 37.9365 24.5774 37.9365Z" fill="url(#paint0_radial)"/>
<path d="M28.0166 26.5602C28.5725 26.5602 29.0442 26.2105 29.2311 25.7205C33.571 25.9868 36.9403 25.5452 38.8897 25.3564C36.9354 25.3945 33.6123 25.534 29.2957 25.0161C29.2755 24.909 29.241 24.8072 29.1961 24.7108C30.2224 23.5954 31.2486 22.3651 32.2511 21.0004C38.0683 13.08 42.1473 3.93297 40.0702 2.34809C38.1082 0.845707 34.7479 3.22639 30.733 7.49458L30.8142 7.52866C33.6369 4.95026 35.6433 3.52678 37.2255 4.72026C38.9453 6.01775 35.6442 15.0016 30.2605 21.9051C29.6705 22.6615 29.0809 23.3698 28.4945 24.0473C28.3465 23.9886 28.186 23.954 28.0175 23.954C27.5113 23.954 27.0768 24.2455 26.8616 24.6678C25.335 24.4122 23.7035 24.0639 21.9904 23.6106C21.9079 22.9699 21.3668 22.4736 20.7041 22.4736C20.6956 22.4736 20.688 22.4763 20.6795 22.4763C18.9462 17.2348 18.484 13.0934 18.1742 10.8217C18.3091 13.1257 18.3997 17.4222 19.8953 22.7614C19.8249 22.8175 19.7617 22.8798 19.7039 22.9489C11.7611 20.4014 4.59664 15.5033 5.19069 13.5418C5.7807 11.6009 8.35148 11.6175 12.3117 12.0699L12.3556 12.017C6.45187 10.8773 2.20743 10.8912 1.49278 13.2983C0.75033 15.8072 9.43243 20.795 18.7951 23.7716C19.0054 23.8384 19.2098 23.8931 19.4187 23.9558C19.503 24.562 19.9998 25.03 20.619 25.0708C21.0476 26.324 21.551 27.6192 22.1563 28.9526C21.9496 29.1835 21.8201 29.4852 21.8201 29.8197C21.8201 30.0308 21.8743 30.2268 21.9635 30.4029C19.8725 32.1138 18.1042 33.3051 16.947 34.1143C18.1625 33.3965 20.05 32.3532 22.2621 30.7912C22.4921 30.9952 22.7912 31.1225 23.1229 31.1225C23.1507 31.1225 23.1772 31.1158 23.205 31.114C27.574 39.6163 33.5858 46.9884 35.8858 45.898C38.1136 44.8399 37.5348 40.7807 35.58 35.2831L35.515 35.3638C36.5072 39.0169 36.8435 41.4267 35.0748 42.2831C33.328 43.13 27.9072 37.5221 24.1546 30.6078C24.3222 30.3886 24.4258 30.1174 24.4258 29.8197C24.4258 29.6206 24.3778 29.4345 24.298 29.266C25.3323 28.4437 26.4088 27.5112 27.5005 26.4526C27.6583 26.5212 27.8327 26.5602 28.0166 26.5602ZM23.8757 28.7598C23.6627 28.6078 23.4036 28.5168 23.1225 28.5168C23.1126 28.5168 23.1032 28.5195 23.0938 28.5195C23.0498 28.4271 23.0046 28.3352 22.9615 28.2428C22.4105 27.0561 21.9344 25.907 21.5085 24.7942C21.5869 24.7319 21.6569 24.662 21.7192 24.5839C23.4825 25.0121 25.162 25.3071 26.7383 25.4963C26.7612 25.6219 26.8056 25.738 26.8616 25.8483C25.8363 26.9292 24.8342 27.8963 23.8757 28.7598Z" fill="#58595B"/>
<path d="M38.4413 24.4593C35.1227 24.7817 27.709 25.851 18.3467 22.8749C8.98406 19.8984 0.301966 14.9106 1.04442 12.4017C1.78776 9.89772 6.35186 9.9838 12.6304 11.2638C8.23623 10.7303 5.37045 10.5819 4.74232 12.6451C4.11689 14.7084 12.0749 20.0226 20.4947 22.4306C28.9065 24.8386 35.3644 24.519 38.4413 24.4593Z" fill="url(#paint1_linear)"/>
<path d="M16.4983 33.2177C19.3704 31.5216 25.9861 28.0219 31.8033 20.1033C37.62 12.1834 41.699 3.03635 39.6219 1.45147C37.5474 -0.136999 33.9082 2.6167 29.5858 7.35207C32.8259 4.32981 35.0524 2.523 36.7767 3.82363C38.4965 5.12113 35.1954 14.105 29.8117 21.0085C24.4281 27.9075 19.0202 31.4535 16.4983 33.2177Z" fill="url(#paint2_linear)"/>
<path d="M35.0667 34.4672C36.0589 38.1202 36.3951 40.5301 34.6264 41.3864C32.6842 42.3283 26.1963 35.2885 22.5132 27.3462C18.8292 19.4052 18.1428 12.9787 17.7258 9.92505C17.9213 13.2549 18.0181 20.7439 22.4087 29.5345C26.8002 38.3206 33.0752 46.1213 35.437 45.0018C37.6648 43.9437 37.086 39.8844 35.1313 34.3869L35.0667 34.4672Z" fill="url(#paint3_linear)"/>
<path d="M27.5681 25.6631C28.2877 25.6631 28.871 25.0798 28.871 24.3602C28.871 23.6407 28.2877 23.0574 27.5681 23.0574C26.8486 23.0574 26.2653 23.6407 26.2653 24.3602C26.2653 25.0798 26.8486 25.6631 27.5681 25.6631Z" fill="white"/>
<path d="M22.6741 30.2259C23.3936 30.2259 23.977 29.6425 23.977 28.923C23.977 28.2034 23.3936 27.6201 22.6741 27.6201C21.9545 27.6201 21.3712 28.2034 21.3712 28.923C21.3712 29.6425 21.9545 30.2259 22.6741 30.2259Z" fill="white"/>
<path d="M20.2549 24.1828C20.9745 24.1828 21.5578 23.5995 21.5578 22.8799C21.5578 22.1603 20.9745 21.577 20.2549 21.577C19.5353 21.577 18.952 22.1603 18.952 22.8799C18.952 23.5995 19.5353 24.1828 20.2549 24.1828Z" fill="white"/>
<defs>
<radialGradient id="paint0_radial" cx="0" cy="0" r="1" gradientUnits="userSpaceOnUse" gradientTransform="translate(18.2924 16.9055) scale(21.4668)">
<stop stop-color="#E3EDD1"/>
<stop offset="0.1818" stop-color="#A7D27D"/>
<stop offset="0.4424" stop-color="#4CB649"/>
<stop offset="0.6667" stop-color="#1B9E49"/>
<stop offset="1" stop-color="#178043"/>
</radialGradient>
<linearGradient id="paint1_linear" x1="19.9023" y1="18.6631" x2="-1.30201" y2="11.1108" gradientUnits="userSpaceOnUse">
<stop stop-color="#E3EDD1"/>
<stop offset="0.135" stop-color="#D0E5C1"/>
<stop offset="0.4128" stop-color="#9ED19C"/>
<stop offset="0.8055" stop-color="#3FB664"/>
<stop offset="1" stop-color="#00AB4E"/>
</linearGradient>
<linearGradient id="paint2_linear" x1="27.5114" y1="18.6743" x2="39.167" y2="0.891089" gradientUnits="userSpaceOnUse">
<stop stop-color="#E3EDD1"/>
<stop offset="0.0365" stop-color="#D8E8C8"/>
<stop offset="0.2263" stop-color="#A2D29E"/>
<stop offset="0.4103" stop-color="#74C280"/>
<stop offset="0.584" stop-color="#46B767"/>
<stop offset="0.745" stop-color="#00B057"/>
<stop offset="0.8884" stop-color="#00AC50"/>
<stop offset="1" stop-color="#00AB4E"/>
</linearGradient>
<linearGradient id="paint3_linear" x1="26.6863" y1="27.173" x2="34.1925" y2="44.7843" gradientUnits="userSpaceOnUse">
<stop stop-color="#E3EDD1"/>
<stop offset="0.101" stop-color="#DAE9CA"/>
<stop offset="0.2658" stop-color="#C4E0B8"/>
<stop offset="0.4739" stop-color="#9ED19C"/>
<stop offset="0.7172" stop-color="#67BF78"/>
<stop offset="0.9873" stop-color="#00AC4F"/>
<stop offset="1" stop-color="#00AB4E"/>
</linearGradient>
</defs>
</svg>
