<svg width="14" height="13" viewBox="0 0 14 13" fill="none" xmlns="http://www.w3.org/2000/svg">
<g clip-path="url(#clip0)">
<path d="M13.678 2.89353L12.5374 1.7529C12.381 1.59638 12.1908 1.5181 11.9672 1.5181C11.7434 1.5181 11.5532 1.59638 11.3968 1.7529L5.89478 7.26323L3.42895 4.78901C3.27238 4.63243 3.08228 4.55423 2.8587 4.55423C2.63497 4.55423 2.44488 4.63243 2.2883 4.78901L1.14768 5.92966C0.9911 6.08621 0.912842 6.27636 0.912842 6.50006C0.912842 6.72358 0.9911 6.91391 1.14768 7.07043L4.18375 10.1064L5.32446 11.2471C5.48095 11.4037 5.6711 11.4819 5.89478 11.4819C6.11836 11.4819 6.30851 11.4035 6.46509 11.2471L7.60577 10.1064L13.678 4.03424C13.8344 3.87766 13.9128 3.68754 13.9128 3.46384C13.913 3.24026 13.8344 3.0501 13.678 2.89353Z" fill="white"/>
</g>
<defs>
<clipPath id="clip0">
<rect width="13" height="13" fill="white" transform="translate(0.912842)"/>
</clipPath>
</defs>
</svg>
