<svg width="245" height="245" viewBox="0 0 245 245" fill="none" xmlns="http://www.w3.org/2000/svg">
<path fill-rule="evenodd" clip-rule="evenodd" d="M39.8004 29.4077C26.9692 31.6607 18.4471 44.3918 21.6921 56.4584C28.3975 81.3836 67.2138 76.9998 67.2871 51.3096C67.3287 36.9382 54.6145 26.8079 39.8004 29.4077ZM96.667 29.5331C94.0979 30.109 90.9 31.6467 88.8613 33.288L87.188 34.6333L86.9835 32.3058L86.7778 29.9772H81.5861H76.3954V59.9886V90H82.5004H88.6054V78.9632V67.9264L90.317 69.3052C99.5194 76.7135 114.295 73.0018 119.739 61.9142C128.147 44.7862 114.441 25.548 96.667 29.5331ZM147.72 29.2608C147.393 29.3343 146.419 29.5363 145.558 29.7081C126.058 33.6057 122.724 61.6397 140.721 70.389C149.578 74.6939 162.826 73.6404 169.149 68.1263L170.215 67.1981L167.863 63.1287C164.885 57.9755 165.307 58.263 162.979 59.806C155.407 64.8219 145.282 63.0282 141.76 56.0467L141.003 54.5458L156.556 54.4691C168.544 54.4108 172.161 54.3092 172.343 54.0282C172.729 53.4275 172.618 49.3559 172.142 46.6578C170.644 38.1776 165.72 32.4301 157.845 29.974C155.828 29.3451 149.364 28.8891 147.72 29.2608ZM201.325 29.5612C197.976 30.2938 195.068 31.8368 192.778 34.0974C190.531 36.3136 190.457 36.2866 190.451 33.2632C190.444 29.7535 190.771 29.9772 185.655 29.9772H181.223V51.1626V72.3469H187.464H193.707L193.794 59.7682L193.88 47.1905L194.755 45.4821C197.99 39.1706 207.21 38.3569 210.827 44.0655C212.447 46.6221 212.493 47.0673 212.493 60.1885V72.3469H218.746H225V59.0939C225 42.9936 224.783 41.4679 221.829 36.829C217.981 30.7855 209.489 27.7761 201.325 29.5612ZM154.64 39.4051C157.263 40.1809 159.676 42.7991 160.527 45.7922L160.715 46.4546H150.995H141.277L141.483 45.7922C143.076 40.6931 149.104 37.7659 154.64 39.4051ZM48.621 41.295C53.3556 43.3934 55.9619 48.9918 54.5248 53.9731C52.1537 62.1843 42.3071 64.6037 36.5576 58.3883C28.6578 49.8487 38.0144 36.5924 48.621 41.295ZM103.416 41.2917C111.482 44.8759 111.752 56.7394 103.859 60.692C95.1041 65.0748 85.9084 57.1132 88.7137 47.5795C90.4833 41.5629 97.3845 38.6119 103.416 41.2917Z" fill="black"/>
<path fill-rule="evenodd" clip-rule="evenodd" d="M153.88 108.671V115.342H149.659H145.438V120.108V124.873H149.36H153.281L153.404 134.063C153.56 145.787 154.014 147.661 157.537 151.153C162.789 156.358 175.116 156.64 181.492 151.701C181.961 151.338 179.199 144.194 178.153 143.063C178.056 142.959 177.12 143.299 176.072 143.818C171.294 146.185 166.072 144.773 165.084 140.848C164.887 140.067 164.771 136.879 164.771 132.24V124.873H171.987H179.203V120.108V115.342H171.987H164.771V108.671V102H159.325H153.88V108.671ZM39.271 115.071C35.911 115.971 33.109 117.997 31.621 120.602L30.866 121.924L30.668 118.633L30.47 115.342H25.735H21V134.948V154.553H26.707H32.414L32.493 143.321C32.583 130.617 32.546 130.847 34.863 128.333C37.093 125.914 41.861 124.711 44.951 125.787C45.619 126.02 46.186 126.185 46.21 126.154C46.374 125.943 47.14 114.979 47 114.838C46.546 114.383 41.245 114.543 39.271 115.071ZM67.244 114.786C41.992 119.411 45.408 155.157 71.102 155.157C87.031 155.157 97.045 139.757 90.175 125.826C86.261 117.889 76.351 113.118 67.244 114.786ZM201.019 114.814C182.307 118.156 178.516 144.404 195.541 152.746C203.669 156.729 215.509 155.781 221.486 150.669L222.517 149.788L220.309 145.975C219.095 143.879 218.003 142.062 217.883 141.938C217.762 141.814 216.863 142.261 215.885 142.93C209.082 147.587 199.713 145.935 196.513 139.514L195.798 138.079L210.07 138.009L224.341 137.938L224.505 137.328C224.996 135.497 224.444 130.431 223.415 127.323C220.4 118.219 211.085 113.016 201.019 114.814ZM100.025 128.481L100.113 141.619L100.837 143.616C104.921 154.882 119.74 159.194 128.104 151.55C129.97 149.844 129.88 149.808 129.974 152.306L130.054 154.417L134.615 154.491L139.176 154.566V134.954V115.342H133.457H127.739V126.203C127.739 135.456 127.674 137.265 127.3 138.425C125.365 144.416 117.838 146.23 113.685 141.706C111.351 139.164 111.287 138.766 111.185 126.302L111.096 115.342H105.516H99.936L100.025 128.481ZM209.344 124.61C211.305 125.571 212.584 127.021 213.277 129.067L213.747 130.455L205.011 130.527C195.01 130.609 195.836 130.77 196.701 128.906C198.852 124.269 204.638 122.303 209.344 124.61ZM74.942 125.741C82.738 129.31 82.774 140.359 75.002 143.996C67.533 147.491 59.361 140.066 61.808 132.008C63.547 126.285 69.708 123.345 74.942 125.741Z" fill="black"/>
<path fill-rule="evenodd" clip-rule="evenodd" d="M30.7497 185.406C25.1838 186.624 22.2873 189.706 22.2942 194.402C22.3003 199.283 25.2329 201.846 33.0563 203.808C37.1026 204.823 38.2694 205.496 38.2694 206.815C38.2694 209.787 31.394 209.706 26.0122 206.671C25.1331 206.175 24.399 205.793 24.3806 205.822C23.4233 207.311 20.9265 212.069 21.0017 212.262C21.3085 213.054 26.5116 215.083 29.6014 215.616C39.9308 217.398 47.9123 212.806 47.1813 205.501C46.7141 200.836 44.215 198.774 36.7628 196.904C32.1926 195.757 31.1677 195.244 31.1677 194.107C31.1677 191.392 36.8725 191.329 42.1117 193.987C43.0183 194.448 43.8015 194.784 43.8514 194.734C44.2035 194.386 47.2012 188.496 47.1053 188.342C45.8381 186.313 35.2709 184.416 30.7497 185.406ZM64.0371 185.41C50.0279 188.424 47.5694 207.862 60.4095 214.087C66.6167 217.096 75.6721 216.31 80.5193 212.342L81.0992 211.867L79.4078 208.973C78.4773 207.382 77.6343 205.996 77.5338 205.895C77.4279 205.787 76.7575 206.11 75.9298 206.669C70.5948 210.268 63.0943 208.752 60.935 203.638L60.6128 202.876H71.5613H82.5091L82.651 201.663C83.8676 191.294 74.5391 183.15 64.0371 185.41ZM102.706 185.492C100.156 186.226 97.8299 187.962 96.8573 189.854L96.3786 190.785L96.226 188.253L96.0725 185.721H92.4443H88.816V200.603V215.484H93.1937H97.5714L97.632 206.855L97.6934 198.225L98.2464 197.192C99.8542 194.192 103.68 192.63 107.101 193.578C107.62 193.721 108.077 193.803 108.116 193.758C108.383 193.456 108.855 185.428 108.614 185.276C108.112 184.961 104.032 185.11 102.706 185.492ZM176.02 185.428C160.231 188.872 158.999 210.037 174.29 215.136C178.743 216.621 185.229 215.964 189.393 213.606C191.273 212.542 191.263 212.927 189.502 209.628C187.452 205.787 187.743 206.04 186.25 206.799C179.649 210.16 172.469 206.878 172.469 200.499C172.469 194.173 179.567 190.907 186.16 194.2C187.725 194.982 187.479 195.184 189.455 191.5L191.12 188.399L190.195 187.769C186.905 185.529 180.445 184.462 176.02 185.428ZM205.9 185.534C192.54 188.781 190.121 206.949 202.133 213.826C207.755 217.044 218.077 216.394 222.582 212.539L223.401 211.838L221.651 208.804C220.688 207.135 219.838 205.769 219.762 205.769C219.686 205.769 219.008 206.179 218.253 206.679C212.741 210.337 204.819 208.582 203.185 203.341L203.04 202.876H214.02H225V200.724C225 189.822 216.399 182.983 205.9 185.534ZM110.121 185.802C110.121 185.87 121.997 211.716 123.5 214.92L123.769 215.493L127.092 215.436L130.415 215.38L137.291 200.658C141.072 192.56 144.167 185.885 144.167 185.825C144.167 185.763 142.093 185.738 139.558 185.769L134.95 185.825L131.294 194.712C129.285 199.6 127.568 203.672 127.479 203.761C127.391 203.85 125.586 199.85 123.469 194.873L119.619 185.825L114.87 185.769C112.258 185.738 110.121 185.753 110.121 185.802ZM148.553 200.603V215.484H152.939H157.326V200.603V185.721H152.939H148.553V200.603ZM69.9482 192.23C71.9441 192.817 73.6179 194.522 74.1602 196.52L74.3704 197.295H67.5986C63.1749 197.295 60.8276 197.223 60.8276 197.087C60.8276 193.995 66.2064 191.13 69.9482 192.23ZM212.993 192.521C214.706 193.27 216.193 194.991 216.537 196.624L216.678 197.295H209.879H203.078L203.275 196.786C204.805 192.803 209.213 190.869 212.993 192.521Z" fill="black"/>
</svg>
