<?xml version="1.0" encoding="iso-8859-1"?>
<!-- Generator: Adobe Illustrator 19.0.0, SVG Export Plug-In . SVG Version: 6.00 Build 0)  -->
<svg version="1.1" id="Capa_1" xmlns="http://www.w3.org/2000/svg" xmlns:xlink="http://www.w3.org/1999/xlink" x="0px" y="0px"
	 viewBox="0 0 512 512" style="enable-background:new 0 0 512 512;" xml:space="preserve">
<g>
	<g>
		<path d="M288,16C164.48,16,64,109.312,64.192,226.432c1.76,11.584,2.88,45.568-12.8,63.776C43.424,299.488,31.84,304,16,304
			c-8.832,0-16,7.168-16,16c0,48.352,40.096,81.408,119.264,98.208c1.12,0.224,2.208,0.352,3.328,0.352
			c7.392,0,14.016-5.152,15.616-12.672c1.824-8.64-3.68-17.12-12.32-18.976c-52.256-11.104-82.912-28.768-91.424-52.576
			c16.864-3.168,30.72-10.976,41.312-23.36C104.16,277.76,96.192,224,96,224c0-97.056,86.112-176,192-176s192,78.944,192,176
			c0,66.112-40.032,126.176-104.448,156.736c-8,3.776-11.392,13.344-7.616,21.312c3.808,8.032,13.44,11.264,21.312,7.616
			C464.96,373.76,512,302.624,512,224C512,109.312,411.488,16,288,16z"/>
	</g>
</g>
<g>
	<g>
		<path d="M323.104,413.408c-0.896-8.8-9.44-15.232-17.536-14.272C299.712,399.712,293.856,400,288,400
			c-32.736,0-58.976-0.896-82.56-2.816c-8.672-0.48-16.512,5.856-17.248,14.624c-0.704,8.8,5.856,16.544,14.656,17.248
			C227.296,431.072,254.368,432,288,432c6.976,0,13.92-0.352,20.832-1.056C317.632,430.048,324,422.176,323.104,413.408z"/>
	</g>
</g>
<g>
	<g>
		<path d="M352,368c-35.296,0-64,28.704-64,64c0,35.296,28.704,64,64,64c35.296,0,64-28.704,64-64C416,396.704,387.296,368,352,368z
			 M352,464c-17.664,0-32-14.336-32-32s14.336-32,32-32s32,14.336,32,32S369.664,464,352,464z"/>
	</g>
</g>
<g>
	<g>
		<path d="M160,368c-35.296,0-64,28.704-64,64c0,35.296,28.704,64,64,64s64-28.704,64-64C224,396.704,195.296,368,160,368z M160,464
			c-17.632,0-32-14.336-32-32s14.368-32,32-32s32,14.336,32,32S177.632,464,160,464z"/>
	</g>
</g>
<g>
	<g>
		<path d="M224.64,160h-0.32c-8.832,0-15.84,7.168-15.84,16c0,8.832,7.328,16,16.16,16c8.832,0,16-7.168,16-16
			C240.64,167.168,233.472,160,224.64,160z"/>
	</g>
</g>
<g>
	<g>
		<path d="M352.64,160h-0.32c-8.832,0-15.84,7.168-15.84,16c0,8.832,7.36,16,16.16,16c8.832,0,16-7.168,16-16
			C368.64,167.168,361.472,160,352.64,160z"/>
	</g>
</g>
<g>
	<g>
		<path d="M371.52,240.384c-8.672-1.856-17.152,3.488-19.136,12.128C345.568,282.816,319.104,304,288,304
			s-57.568-21.184-64.384-51.488c-1.952-8.64-10.496-14.08-19.136-12.096c-8.608,1.92-14.016,10.496-12.096,19.072
			C202.528,304.576,241.856,336,288,336c46.176,0,85.504-31.456,95.648-76.48C385.568,250.88,380.16,242.336,371.52,240.384z"/>
	</g>
</g>
<g>
</g>
<g>
</g>
<g>
</g>
<g>
</g>
<g>
</g>
<g>
</g>
<g>
</g>
<g>
</g>
<g>
</g>
<g>
</g>
<g>
</g>
<g>
</g>
<g>
</g>
<g>
</g>
<g>
</g>
</svg>
